<svg width="700" height="700" viewBox="0 0 700 700" fill="none" xmlns="http://www.w3.org/2000/svg">
<path d="M106 134C106 118.536 118.536 106 134 106H566C581.464 106 594 118.536 594 134V566C594 581.464 581.464 594 566 594H134C118.536 594 106 581.464 106 566V134Z" fill="#25344F"/>
<path d="M28 208C28 192.536 40.536 180 56 180H488C503.464 180 516 192.536 516 208V640C516 655.464 503.464 668 488 668H56C40.536 668 28 655.464 28 640V208Z" stroke="#25344F" stroke-width="12" stroke-linecap="round" stroke-dasharray="24 34"/>
</svg>
