<svg width="1700" height="965" viewBox="0 0 1700 965" fill="none" xmlns="http://www.w3.org/2000/svg">
<path d="M32 1.5H1668C1673.63 1.5 1677.75 1.50117 1681.01 1.7675C1684.26 2.03241 1686.51 2.55215 1688.4 3.51638C1691.88 5.29004 1694.71 8.12018 1696.48 11.6012C1697.45 13.4936 1697.97 15.7439 1698.23 18.9862C1698.5 22.246 1698.5 26.3747 1698.5 32V933C1698.5 938.625 1698.5 942.754 1698.23 946.014C1697.97 949.256 1697.45 951.506 1696.48 953.399C1694.71 956.88 1691.88 959.71 1688.4 961.484C1686.51 962.448 1684.26 962.968 1681.01 963.232C1677.75 963.499 1673.63 963.5 1668 963.5H32C26.3747 963.5 22.246 963.499 18.9862 963.232C15.7439 962.968 13.4936 962.448 11.6012 961.484C8.12018 959.71 5.29004 956.88 3.51638 953.399C2.55215 951.506 2.03241 949.256 1.7675 946.014C1.50117 942.754 1.5 938.625 1.5 933V32C1.5 26.3747 1.50117 22.246 1.7675 18.9862C2.03241 15.7439 2.55215 13.4936 3.51638 11.6012C5.29004 8.12018 8.12018 5.29004 11.6012 3.51638C13.4936 2.55215 15.7439 2.03241 18.9862 1.7675C22.246 1.50117 26.3747 1.5 32 1.5Z" fill="white" stroke="#0E91BD" stroke-width="3"/>
</svg>
