<svg width="1700" height="965" viewBox="0 0 1700 965" fill="none" xmlns="http://www.w3.org/2000/svg">
<g clip-path="url(#clip0_4_55)">
<path d="M0 12C0 5.37261 5.37258 0 12 0H1688C1694.63 0 1700 5.37258 1700 12V953C1700 959.627 1694.63 965 1688 965H12C5.37254 965 0 959.627 0 953V12Z" fill="#F5F5F5"/>
<path d="M0 19.2C0 12.4794 0 9.11905 1.30792 6.55211C2.4584 4.29417 4.29417 2.4584 6.55211 1.30792C9.11905 0 12.4794 0 19.2 0H1680.8C1687.52 0 1690.88 0 1693.45 1.30792C1695.71 2.4584 1697.54 4.29417 1698.69 6.55211C1700 9.11905 1700 12.4794 1700 19.2V945.8C1700 952.521 1700 955.881 1698.69 958.448C1697.54 960.706 1695.71 962.542 1693.45 963.692C1690.88 965 1687.52 965 1680.8 965H19.1999C12.4793 965 9.11905 965 6.55211 963.692C4.29417 962.542 2.4584 960.706 1.30792 958.448C0 955.881 0 952.521 0 945.8V19.2Z" fill="white"/>
<path d="M92 264C92 261.791 93.7909 260 96 260H820C822.209 260 824 261.791 824 264V396C824 398.209 822.209 400 820 400H96C93.7909 400 92 398.209 92 396V264Z" fill="#ABCFE3"/>
<path d="M92 428C92 425.791 93.7909 424 96 424H820C822.209 424 824 425.791 824 428V560C824 562.209 822.209 564 820 564H96C93.7909 564 92 562.209 92 560V428Z" fill="#E3EFF6"/>
<path opacity="0.9" d="M92 592C92 589.791 93.7909 588 96 588H820C822.209 588 824 589.791 824 592V724C824 726.209 822.209 728 820 728H96C93.7909 728 92 726.209 92 724V592Z" fill="#E3EFF6"/>
<path opacity="0.8" d="M92 756C92 753.791 93.7909 752 96 752H820C822.209 752 824 753.791 824 756V888C824 890.209 822.209 892 820 892H96C93.7909 892 92 890.209 92 888V756Z" fill="#E3EFF6"/>
<path d="M114.34 61.3897C106.239 62.3837 99.0823 66.7405 94.6095 73.367C92.2074 76.9287 90.8159 80.6395 90.2361 84.9466C89.9213 87.3984 89.9213 89.0053 90.2361 91.4074C91.5945 101.827 98.8504 110.491 108.972 113.805C111.789 114.732 114.091 115.08 117.487 115.097C123.368 115.097 127.824 113.838 132.231 110.922C133.937 109.796 136.72 107.145 138.013 105.439C139.818 103.037 141.243 99.7733 142.038 96.2116C142.353 94.82 142.403 94.058 142.403 90.7779C142.419 88.674 142.353 86.6861 142.287 86.3382L142.154 85.7252H129.829H117.487V89.4526V93.18H126.184H134.882V93.6604C134.882 94.6875 134.037 97.454 133.208 99.1437C132.43 100.718 132.181 101.049 130.591 102.623C128.123 105.074 126.052 106.217 122.308 107.228C120.883 107.609 120.403 107.642 117.736 107.659C115.516 107.659 114.439 107.592 113.545 107.377C109.536 106.449 106.371 104.743 103.771 102.109C102.097 100.386 101.219 99.1769 100.176 97.073C98.5522 93.7929 98.0055 91.1258 98.1546 87.2327C98.2706 84.0686 98.8173 81.9482 100.225 79.1816C103.505 72.6877 110.082 68.6456 117.388 68.6622C122.026 68.6788 125.522 69.8881 129.431 72.8368L130.773 73.8474L131.138 73.4498C131.353 73.2344 132.463 72.0582 133.639 70.8489L135.76 68.6456L135.196 68.0658C134.434 67.2706 132.082 65.5478 130.624 64.7029C128.222 63.3114 124.892 62.1186 122.126 61.6216C120.254 61.2903 116.079 61.1578 114.34 61.3897Z" fill="#ABCFE3"/>
<path d="M259.127 88.5414V114.053L262.987 114.02L266.831 113.97L266.814 113.589C266.814 113.391 266.798 101.927 266.781 88.1273L266.748 63.0297H262.938H259.127V88.5414Z" fill="#ABCFE3"/>
<path d="M159.83 80.5897C157.361 80.9873 154.976 81.8487 152.988 83.0746C151.381 84.052 149.227 86.0399 148.217 87.4646C147.157 88.939 146.047 91.3576 145.533 93.2627C145.136 94.7537 145.103 95.2009 145.103 97.8184C145.103 100.452 145.136 100.867 145.55 102.357C146.693 106.549 149.078 109.878 152.64 112.231C155.572 114.153 157.958 114.881 161.718 114.997C165.644 115.13 168.444 114.467 171.343 112.728C175.319 110.326 178.003 106.814 179.212 102.457C179.792 100.336 179.941 96.7582 179.543 94.6543C177.986 86.3547 171.443 80.7719 162.961 80.5068C161.785 80.4737 160.36 80.5068 159.83 80.5897ZM165.048 87.6468C167.533 88.3757 169.803 90.2974 170.979 92.6995C171.89 94.5714 172.205 96.0955 172.105 98.3154C171.89 102.937 169.355 106.449 165.197 107.857C163.922 108.288 160.84 108.288 159.565 107.857C157.892 107.294 157.014 106.731 155.721 105.439C153.684 103.418 152.624 100.8 152.607 97.8515C152.607 94.2235 154.33 90.7281 156.997 88.9555C158.123 88.2101 159.598 87.5971 160.774 87.3818C161.884 87.183 163.905 87.3155 165.048 87.6468Z" fill="#ABCFE3"/>
<path d="M197.866 80.5897C191.836 81.3518 186.518 85.3939 184.232 90.927C183.238 93.3456 182.873 95.4329 182.973 98.3154C183.072 101.281 183.553 103.285 184.745 105.687C187.131 110.491 191.554 113.788 196.955 114.815C199.009 115.196 203.018 115.064 204.873 114.55C212.361 112.513 217.314 106.317 217.662 98.6302C217.911 93.2959 216.221 88.9722 212.494 85.3111C210.191 83.0415 207.308 81.5009 204.111 80.8382C202.604 80.5235 199.439 80.3909 197.866 80.5897ZM203.333 87.7794C207.391 89.2041 210.091 93.1965 210.091 97.7687C210.091 99.6076 209.71 101.148 208.866 102.888C208.253 104.114 207.888 104.611 206.878 105.571C204.939 107.41 202.852 108.255 200.268 108.255C197.601 108.255 195.646 107.41 193.592 105.356C192.548 104.329 192.117 103.749 191.653 102.788C189.616 98.4645 190.411 93.2628 193.592 90.1152C196.259 87.4812 199.936 86.6032 203.333 87.7794Z" fill="#ABCFE3"/>
<path d="M234.725 80.6726C228.032 81.9481 222.599 87.3984 221.174 94.2567C220.528 97.3712 220.843 101.231 222.002 104.196C223.543 108.189 226.558 111.502 230.385 113.391C235.868 116.124 241.998 115.528 245.957 111.883L246.686 111.204L246.802 111.668C247.001 112.413 246.736 115.875 246.371 117.25C245.526 120.613 243.422 122.75 240.159 123.579C239.016 123.877 236.812 123.91 235.57 123.645C233.317 123.181 230.948 121.375 229.49 119.006L228.712 117.731L225.73 118.957C224.106 119.636 222.632 120.249 222.466 120.315C222.185 120.431 222.218 120.564 222.897 121.872C224.951 125.865 228.48 128.764 232.903 130.039C238.817 131.762 245.543 130.172 249.452 126.113C251.689 123.811 253.031 120.961 253.743 117.035C254.008 115.627 254.041 113.722 254.091 98.5142L254.141 81.5837H250.496H246.868V82.909C246.868 83.6379 246.835 84.2343 246.785 84.2343C246.736 84.2343 246.123 83.7704 245.41 83.2072C243.986 82.0807 242.296 81.2192 240.706 80.8382C239.165 80.4572 236.282 80.3744 234.725 80.6726ZM240.921 87.7794C243.257 88.5911 244.93 90.1318 246.123 92.6001C247.829 96.0956 247.746 99.9886 245.907 103.517C243.108 108.885 235.918 109.879 231.528 105.505C229.507 103.501 228.48 100.949 228.48 97.8847C228.48 92.567 231.793 88.2764 236.597 87.3818C237.707 87.1665 239.695 87.3487 240.921 87.7794Z" fill="#ABCFE3"/>
<path d="M283.811 80.6229C283.214 80.7057 282.005 81.0205 281.11 81.3187C275.511 83.2403 271.552 88.0942 270.442 94.4224C270.077 96.5098 270.226 100.353 270.723 102.291C272.115 107.592 275.61 111.784 280.249 113.705C286.064 116.141 292.707 115.378 297.527 111.734C298.786 110.79 301.188 108.404 301.536 107.742C301.685 107.476 301.371 107.211 298.836 105.522C297.246 104.478 295.887 103.617 295.821 103.617C295.755 103.617 295.539 103.815 295.357 104.064C294.032 105.77 292.342 107.062 290.52 107.775C289.642 108.106 289.244 108.156 287.207 108.156C285.252 108.156 284.738 108.089 283.943 107.791C282.055 107.095 280.282 105.605 279.255 103.849C279.007 103.434 278.841 103.07 278.874 103.037C278.891 103.02 284.125 100.85 290.47 98.2161L302 93.4616L301.669 92.5339C298.554 83.9527 291.862 79.4798 283.811 80.6229ZM289.145 87.5475C290.487 87.9617 291.829 88.8894 292.558 89.9165C292.872 90.3472 293.104 90.7282 293.071 90.7613C292.856 90.927 277.814 97.1558 277.615 97.1558C277.4 97.1558 277.532 95.6483 277.847 94.439C278.311 92.6167 279.056 91.2914 280.415 89.933C282.22 88.0942 284.192 87.2328 286.643 87.2328C287.637 87.2162 288.416 87.3156 289.145 87.5475Z" fill="#ABCFE3"/>
<path d="M364 96C364 75.0132 381.013 58 402 58H1134C1154.99 58 1172 75.0132 1172 96C1172 116.987 1154.99 134 1134 134H402C381.013 134 364 116.987 364 96Z" stroke="#ABCFE3" stroke-width="4"/>
<path fill-rule="evenodd" clip-rule="evenodd" d="M1123 79.75C1116.79 79.75 1111.75 84.7868 1111.75 91C1111.75 97.2132 1116.79 102.25 1123 102.25C1124.94 102.25 1126.76 101.76 1128.35 100.899C1129.31 100.379 1130.19 99.722 1130.95 98.955C1131.72 98.1877 1132.38 97.311 1132.9 96.3507C1133.76 94.7615 1134.25 92.9408 1134.25 91C1134.25 84.7868 1129.21 79.75 1123 79.75ZM1108 91C1108 82.7157 1114.72 76 1123 76C1131.28 76 1138 82.7157 1138 91C1138 93.58 1137.35 96.013 1136.2 98.1375C1135.8 98.8625 1135.35 99.5515 1134.85 100.198L1148.01 113.356L1145.36 116.007L1132.2 102.85C1131.55 103.352 1130.86 103.803 1130.14 104.196C1128.01 105.347 1125.58 106 1123 106C1114.72 106 1108 99.2843 1108 91Z" fill="#ABCFE3"/>
<line x1="1205.5" y1="908.006" x2="1205.5" y2="229.994" stroke="#ABCFE3"/>
<rect x="1250" y="236" width="364" height="447" rx="24" fill="#E3EFF6"/>
<path d="M1432 404C1410.57 404 1393.13 421.438 1393.13 442.869C1393.13 463.499 1428.4 511.697 1429.9 513.738L1431.3 515.645C1431.46 515.869 1431.72 516 1432 516C1432.28 516 1432.54 515.869 1432.7 515.645L1434.1 513.738C1435.6 511.697 1470.87 463.499 1470.87 442.869C1470.87 421.438 1453.43 404 1432 404ZM1432 428.946C1439.68 428.946 1445.92 435.191 1445.92 442.869C1445.92 450.543 1439.68 456.792 1432 456.792C1424.32 456.792 1418.08 450.543 1418.08 442.869C1418.08 435.191 1424.32 428.946 1432 428.946Z" fill="#ABCFE3"/>
<path d="M1250 711C1250 708.791 1251.79 707 1254 707H1558C1560.21 707 1562 708.791 1562 711V740C1562 742.209 1560.21 744 1558 744H1254C1251.79 744 1250 742.209 1250 740V711Z" fill="#ABCFE3"/>
<g clip-path="url(#clip1_4_55)">
<path d="M1269.74 752.867L1273.8 761.094C1274.08 761.666 1274.63 762.063 1275.26 762.154L1284.34 763.474C1285.93 763.705 1286.56 765.659 1285.41 766.78L1278.84 773.184C1278.39 773.63 1278.18 774.272 1278.29 774.9L1279.84 783.943C1280.11 785.527 1278.45 786.734 1277.02 785.987L1268.9 781.718C1268.34 781.421 1267.66 781.421 1267.1 781.718L1258.98 785.987C1257.56 786.735 1255.89 785.527 1256.16 783.943L1257.72 774.9C1257.82 774.272 1257.62 773.63 1257.16 773.184L1250.59 766.78C1249.44 765.658 1250.07 763.704 1251.66 763.474L1260.74 762.154C1261.37 762.063 1261.92 761.666 1262.2 761.094L1266.26 752.867C1266.97 751.426 1269.03 751.426 1269.74 752.867Z" fill="#ABCFE3"/>
</g>
<g clip-path="url(#clip2_4_55)">
<path d="M1315.74 752.867L1319.8 761.094C1320.08 761.666 1320.63 762.063 1321.26 762.154L1330.34 763.474C1331.93 763.705 1332.56 765.659 1331.41 766.78L1324.84 773.184C1324.39 773.63 1324.18 774.272 1324.29 774.9L1325.84 783.943C1326.11 785.527 1324.45 786.734 1323.02 785.987L1314.9 781.718C1314.34 781.421 1313.66 781.421 1313.1 781.718L1304.98 785.987C1303.56 786.735 1301.89 785.527 1302.16 783.943L1303.72 774.9C1303.82 774.272 1303.62 773.63 1303.16 773.184L1296.59 766.78C1295.44 765.658 1296.07 763.704 1297.66 763.474L1306.74 762.154C1307.37 762.063 1307.92 761.666 1308.2 761.094L1312.26 752.867C1312.97 751.426 1315.03 751.426 1315.74 752.867Z" fill="#ABCFE3"/>
</g>
<g clip-path="url(#clip3_4_55)">
<path d="M1361.74 752.867L1365.8 761.094C1366.08 761.666 1366.63 762.063 1367.26 762.154L1376.34 763.474C1377.93 763.705 1378.56 765.659 1377.41 766.78L1370.84 773.184C1370.39 773.63 1370.18 774.272 1370.29 774.9L1371.84 783.943C1372.11 785.527 1370.45 786.734 1369.02 785.987L1360.9 781.718C1360.34 781.421 1359.66 781.421 1359.1 781.718L1350.98 785.987C1349.56 786.735 1347.89 785.527 1348.16 783.943L1349.72 774.9C1349.82 774.272 1349.62 773.63 1349.16 773.184L1342.59 766.78C1341.44 765.658 1342.07 763.704 1343.66 763.474L1352.74 762.154C1353.37 762.063 1353.92 761.666 1354.2 761.094L1358.26 752.867C1358.97 751.426 1361.03 751.426 1361.74 752.867Z" fill="#ABCFE3"/>
</g>
<g clip-path="url(#clip4_4_55)">
<path d="M1407.74 752.867L1411.8 761.094C1412.08 761.666 1412.63 762.063 1413.26 762.154L1422.34 763.474C1423.93 763.705 1424.56 765.659 1423.41 766.78L1416.84 773.184C1416.39 773.63 1416.18 774.272 1416.29 774.9L1417.84 783.943C1418.11 785.527 1416.45 786.734 1415.02 785.987L1406.9 781.718C1406.34 781.421 1405.66 781.421 1405.1 781.718L1396.98 785.987C1395.56 786.735 1393.89 785.527 1394.16 783.943L1395.72 774.9C1395.82 774.272 1395.62 773.63 1395.16 773.184L1388.59 766.78C1387.44 765.658 1388.07 763.704 1389.66 763.474L1398.74 762.154C1399.37 762.063 1399.92 761.666 1400.2 761.094L1404.26 752.867C1404.97 751.426 1407.03 751.426 1407.74 752.867Z" fill="#ABCFE3"/>
</g>
<g clip-path="url(#clip5_4_55)">
<path d="M1453.74 752.867L1457.8 761.094C1458.08 761.666 1458.63 762.063 1459.26 762.154L1468.34 763.474C1469.93 763.705 1470.56 765.659 1469.41 766.78L1462.84 773.184C1462.39 773.63 1462.18 774.272 1462.29 774.9L1463.84 783.943C1464.11 785.527 1462.45 786.734 1461.02 785.987L1452.9 781.718C1452.34 781.421 1451.66 781.421 1451.1 781.718L1442.98 785.987C1441.56 786.735 1439.89 785.527 1440.16 783.943L1441.72 774.9C1441.82 774.272 1441.62 773.63 1441.16 773.184L1434.59 766.78C1433.44 765.658 1434.07 763.704 1435.66 763.474L1444.74 762.154C1445.37 762.063 1445.92 761.666 1446.2 761.094L1450.26 752.867C1450.97 751.426 1453.03 751.426 1453.74 752.867Z" fill="#ABCFE3"/>
</g>
<path d="M1305.75 812.255C1305.75 810.045 1307.54 808.255 1309.75 808.255H1445.19C1447.4 808.255 1449.19 810.045 1449.19 812.255V836.421C1449.19 838.63 1447.4 840.421 1445.19 840.421H1309.75C1307.54 840.421 1305.75 838.63 1305.75 836.421V812.255Z" fill="#E3EFF6"/>
<path d="M1308.75 865.042C1308.75 862.832 1310.54 861.042 1312.75 861.042H1448.19C1450.4 861.042 1452.19 862.832 1452.19 865.042V889.208C1452.19 891.417 1450.4 893.208 1448.19 893.208H1312.75C1310.54 893.208 1308.75 891.417 1308.75 889.208V865.042Z" fill="#E3EFF6"/>
<path d="M1270.7 829.08L1269.85 829.973C1269.85 829.973 1267.86 832.095 1262.41 826.303C1256.96 820.512 1258.95 818.391 1258.95 818.391L1259.48 817.828C1260.79 816.444 1260.91 814.221 1259.77 812.598L1257.45 809.278C1256.04 807.269 1253.32 807.004 1251.71 808.717L1248.81 811.794C1248.01 812.643 1247.47 813.745 1247.54 814.967C1247.71 818.093 1249.03 824.82 1256.42 832.669C1264.25 840.991 1271.6 841.322 1274.61 841.023C1275.56 840.928 1276.38 840.411 1277.05 839.703L1279.67 836.919C1281.44 835.04 1280.94 831.818 1278.68 830.503L1275.15 828.456C1273.67 827.593 1271.86 827.846 1270.7 829.08Z" fill="#ABCFE3"/>
<path d="M1266.46 805.499C1266.58 804.738 1267.29 804.222 1268.05 804.345C1268.09 804.354 1268.25 804.382 1268.32 804.4C1268.48 804.436 1268.7 804.49 1268.97 804.57C1269.52 804.731 1270.29 804.996 1271.2 805.421C1273.04 806.271 1275.49 807.759 1278.03 810.32C1280.56 812.881 1282.04 815.349 1282.88 817.203C1283.3 818.13 1283.56 818.901 1283.72 819.454C1283.8 819.73 1283.86 819.952 1283.89 820.111C1283.91 820.19 1283.92 820.254 1283.93 820.301L1283.94 820.359C1284.06 821.12 1283.56 821.869 1282.8 821.993C1282.05 822.116 1281.34 821.602 1281.22 820.844C1281.21 820.824 1281.2 820.769 1281.19 820.718C1281.17 820.614 1281.13 820.451 1281.07 820.235C1280.94 819.802 1280.72 819.159 1280.36 818.367C1279.65 816.784 1278.35 814.598 1276.07 812.294C1273.79 809.99 1271.62 808.685 1270.05 807.959C1269.27 807.596 1268.63 807.377 1268.2 807.251C1267.99 807.188 1267.72 807.126 1267.62 807.103C1266.86 806.977 1266.34 806.258 1266.46 805.499Z" fill="#ABCFE3"/>
<path fill-rule="evenodd" clip-rule="evenodd" d="M1266.88 811.92C1267.09 811.179 1267.85 810.75 1268.59 810.962L1268.21 812.304C1268.59 810.962 1268.59 810.962 1268.59 810.962L1268.59 810.962L1268.59 810.963L1268.6 810.965L1268.61 810.969L1268.65 810.981C1268.68 810.99 1268.71 811.001 1268.75 811.016C1268.84 811.046 1268.94 811.088 1269.08 811.146C1269.35 811.262 1269.72 811.442 1270.17 811.711C1271.07 812.251 1272.3 813.146 1273.75 814.607C1275.2 816.069 1276.09 817.312 1276.62 818.224C1276.89 818.679 1277.06 819.049 1277.18 819.321C1277.24 819.456 1277.28 819.567 1277.31 819.65C1277.32 819.692 1277.33 819.727 1277.34 819.755L1277.35 819.792L1277.36 819.806L1277.36 819.813L1277.36 819.815C1277.36 819.815 1277.36 819.818 1276.03 820.202L1277.36 819.818C1277.57 820.559 1277.15 821.332 1276.41 821.544C1275.68 821.754 1274.92 821.334 1274.71 820.604L1274.7 820.584C1274.69 820.556 1274.67 820.501 1274.64 820.42C1274.57 820.26 1274.44 819.997 1274.24 819.646C1273.83 818.944 1273.08 817.885 1271.79 816.582C1270.5 815.279 1269.45 814.529 1268.76 814.114C1268.41 813.906 1268.15 813.782 1267.99 813.713C1267.91 813.678 1267.85 813.658 1267.83 813.648L1267.81 813.641C1267.08 813.421 1266.67 812.656 1266.88 811.92Z" fill="#ABCFE3"/>
<path d="M1281.89 860.446H1252.38C1250.35 860.446 1248.71 862.121 1248.71 864.169L1248.69 886.507C1248.69 888.555 1250.35 890.23 1252.38 890.23H1281.89C1283.92 890.23 1285.58 888.555 1285.58 886.507V864.169C1285.58 862.121 1283.92 860.446 1281.89 860.446ZM1281.89 867.892L1267.14 877.2L1252.38 867.892V864.169L1267.14 873.477L1281.89 864.169V867.892Z" fill="#ABCFE3"/>
</g>
<path d="M12 1.5H1688C1693.8 1.5 1698.5 6.201 1698.5 12V953C1698.5 958.799 1693.8 963.5 1688 963.5H12C6.20098 963.5 1.5 958.799 1.5 953V12C1.5 6.20103 6.20101 1.5 12 1.5Z" stroke="#0E91BD" stroke-width="3"/>
<defs>
<clipPath id="clip0_4_55">
<path d="M0 12C0 5.37261 5.37258 0 12 0H1688C1694.63 0 1700 5.37258 1700 12V953C1700 959.627 1694.63 965 1688 965H12C5.37254 965 0 959.627 0 953V12Z" fill="white"/>
</clipPath>
<clipPath id="clip1_4_55">
<rect width="36" height="36" fill="white" transform="translate(1250 751)"/>
</clipPath>
<clipPath id="clip2_4_55">
<rect width="36" height="36" fill="white" transform="translate(1296 751)"/>
</clipPath>
<clipPath id="clip3_4_55">
<rect width="36" height="36" fill="white" transform="translate(1342 751)"/>
</clipPath>
<clipPath id="clip4_4_55">
<rect width="36" height="36" fill="white" transform="translate(1388 751)"/>
</clipPath>
<clipPath id="clip5_4_55">
<rect width="36" height="36" fill="white" transform="translate(1434 751)"/>
</clipPath>
</defs>
</svg>
