<svg width="1920" height="1080" viewBox="0 0 1920 1080" fill="none" xmlns="http://www.w3.org/2000/svg">
<path d="M28 1.5H1892C1906.64 1.5 1918.5 13.3645 1918.5 28V1052C1918.5 1066.64 1906.64 1078.5 1892 1078.5H28C13.3645 1078.5 1.5 1066.64 1.5 1052V28C1.5 13.3645 13.3645 1.5 28 1.5Z" fill="white"/>
<path d="M28 1.5H1892C1906.64 1.5 1918.5 13.3645 1918.5 28V1052C1918.5 1066.64 1906.64 1078.5 1892 1078.5H28C13.3645 1078.5 1.5 1066.64 1.5 1052V28C1.5 13.3645 13.3645 1.5 28 1.5Z" stroke="#0E91BD" stroke-width="3"/>
<path d="M1237.86 274.264C1298.63 332.943 1339.25 409.352 1353.92 492.541C1368.59 575.729 1356.55 661.426 1319.52 737.349L1247.61 702.279C1277.24 641.541 1286.87 572.983 1275.14 506.433C1263.4 439.882 1230.9 378.754 1182.29 331.811L1237.86 274.264Z" fill="#0E91BD"/>
<path d="M724.885 238.393C793.224 188.742 875.527 162 959.999 162C1044.47 162 1126.77 188.742 1195.11 238.393L1148.09 303.115C1093.42 263.394 1027.58 242 959.999 242C892.422 242 826.579 263.394 771.908 303.115L724.885 238.393Z" fill="#ABCFE3"/>
<path d="M600.481 737.348C563.451 661.426 551.407 575.729 566.076 492.541C580.744 409.352 621.372 332.943 682.136 274.264L737.708 331.811C689.097 378.755 656.595 439.882 644.86 506.433C633.126 572.983 642.761 641.541 672.385 702.279L600.481 737.348Z" fill="#E3EFF6"/>
<path d="M692.763 887.736H726.171V898.008H692.763V887.736ZM693.723 916.536H731.643V927H681.243V859.8H730.299V870.264H693.723V916.536ZM737.145 927L765.465 888.024V897.432L738.489 859.8H752.601L772.665 887.64L766.905 887.736L786.777 859.8H800.313L773.529 896.76V887.736L802.041 927H787.641L766.521 897.432H772.185L751.353 927H737.145ZM841.034 927.96C835.914 927.96 831.146 927.128 826.73 925.464C822.378 923.736 818.57 921.336 815.306 918.264C812.106 915.128 809.61 911.448 807.818 907.224C806.026 903 805.13 898.392 805.13 893.4C805.13 888.408 806.026 883.8 807.818 879.576C809.61 875.352 812.138 871.704 815.402 868.632C818.666 865.496 822.474 863.096 826.826 861.432C831.178 859.704 835.946 858.84 841.13 858.84C846.634 858.84 851.658 859.8 856.202 861.72C860.746 863.576 864.586 866.36 867.722 870.072L859.658 877.656C857.226 875.032 854.506 873.08 851.498 871.8C848.49 870.456 845.226 869.784 841.706 869.784C838.186 869.784 834.954 870.36 832.01 871.512C829.13 872.664 826.602 874.296 824.426 876.408C822.314 878.52 820.65 881.016 819.434 883.896C818.282 886.776 817.706 889.944 817.706 893.4C817.706 896.856 818.282 900.024 819.434 902.904C820.65 905.784 822.314 908.28 824.426 910.392C826.602 912.504 829.13 914.136 832.01 915.288C834.954 916.44 838.186 917.016 841.706 917.016C845.226 917.016 848.49 916.376 851.498 915.096C854.506 913.752 857.226 911.736 859.658 909.048L867.722 916.728C864.586 920.376 860.746 923.16 856.202 925.08C851.658 927 846.602 927.96 841.034 927.96ZM891.7 887.736H925.108V898.008H891.7V887.736ZM892.66 916.536H930.58V927H880.18V859.8H929.236V870.264H892.66V916.536ZM944.993 927V859.8H957.473V916.44H992.609V927H944.993ZM1002.96 927V859.8H1015.44V916.44H1050.58V927H1002.96ZM1072.45 887.736H1105.86V898.008H1072.45V887.736ZM1073.41 916.536H1111.33V927H1060.93V859.8H1109.99V870.264H1073.41V916.536ZM1125.74 927V859.8H1136.01L1178.16 911.544H1173.07V859.8H1185.45V927H1175.18L1133.04 875.256H1138.13V927H1125.74ZM1217.59 927V870.36H1195.32V859.8H1252.35V870.36H1230.07V927H1217.59ZM1263.7 904.728L1261.4 859.8H1275.61L1273.21 904.728H1263.7ZM1268.5 927.672C1266.26 927.672 1264.41 926.936 1262.93 925.464C1261.46 923.992 1260.73 922.232 1260.73 920.184C1260.73 918.136 1261.46 916.408 1262.93 915C1264.41 913.528 1266.26 912.792 1268.5 912.792C1270.74 912.792 1272.57 913.528 1273.97 915C1275.38 916.408 1276.09 918.136 1276.09 920.184C1276.09 922.232 1275.38 923.992 1273.97 925.464C1272.57 926.936 1270.74 927.672 1268.5 927.672Z" fill="#0E91BD"/>
<path d="M886.749 806V742L893.749 749H872.749V736H902.949V806H886.749ZM945.609 807.2C939.876 807.2 934.742 805.8 930.209 803C925.676 800.133 922.109 796 919.509 790.6C916.909 785.2 915.609 778.667 915.609 771C915.609 763.333 916.909 756.8 919.509 751.4C922.109 746 925.676 741.9 930.209 739.1C934.742 736.233 939.876 734.8 945.609 734.8C951.409 734.8 956.542 736.233 961.009 739.1C965.542 741.9 969.109 746 971.709 751.4C974.309 756.8 975.609 763.333 975.609 771C975.609 778.667 974.309 785.2 971.709 790.6C969.109 796 965.542 800.133 961.009 803C956.542 805.8 951.409 807.2 945.609 807.2ZM945.609 793.5C948.342 793.5 950.709 792.733 952.709 791.2C954.776 789.667 956.376 787.233 957.509 783.9C958.709 780.567 959.309 776.267 959.309 771C959.309 765.733 958.709 761.433 957.509 758.1C956.376 754.767 954.776 752.333 952.709 750.8C950.709 749.267 948.342 748.5 945.609 748.5C942.942 748.5 940.576 749.267 938.509 750.8C936.509 752.333 934.909 754.767 933.709 758.1C932.576 761.433 932.009 765.733 932.009 771C932.009 776.267 932.576 780.567 933.709 783.9C934.909 787.233 936.509 789.667 938.509 791.2C940.576 792.733 942.942 793.5 945.609 793.5ZM1013.98 807.2C1008.25 807.2 1003.11 805.8 998.58 803C994.047 800.133 990.48 796 987.88 790.6C985.28 785.2 983.98 778.667 983.98 771C983.98 763.333 985.28 756.8 987.88 751.4C990.48 746 994.047 741.9 998.58 739.1C1003.11 736.233 1008.25 734.8 1013.98 734.8C1019.78 734.8 1024.91 736.233 1029.38 739.1C1033.91 741.9 1037.48 746 1040.08 751.4C1042.68 756.8 1043.98 763.333 1043.98 771C1043.98 778.667 1042.68 785.2 1040.08 790.6C1037.48 796 1033.91 800.133 1029.38 803C1024.91 805.8 1019.78 807.2 1013.98 807.2ZM1013.98 793.5C1016.71 793.5 1019.08 792.733 1021.08 791.2C1023.15 789.667 1024.75 787.233 1025.88 783.9C1027.08 780.567 1027.68 776.267 1027.68 771C1027.68 765.733 1027.08 761.433 1025.88 758.1C1024.75 754.767 1023.15 752.333 1021.08 750.8C1019.08 749.267 1016.71 748.5 1013.98 748.5C1011.31 748.5 1008.95 749.267 1006.88 750.8C1004.88 752.333 1003.28 754.767 1002.08 758.1C1000.95 761.433 1000.38 765.733 1000.38 771C1000.38 776.267 1000.95 780.567 1002.08 783.9C1003.28 787.233 1004.88 789.667 1006.88 791.2C1008.95 792.733 1011.31 793.5 1013.98 793.5Z" fill="#0E91BD"/>
<path d="M1136.44 647.754C1144.27 652.448 1139.39 664.48 1130.51 662.404L941.43 618.231C936.647 617.114 933.991 611.99 935.835 607.437L958.404 551.729C960.248 547.176 965.721 545.345 969.934 547.872L1136.44 647.754Z" fill="#0E91BD"/>
</svg>
