<svg width="1920" height="1080" viewBox="0 0 1920 1080" fill="none" xmlns="http://www.w3.org/2000/svg">
<rect width="1920" height="1080" fill="#F5F5F5"/>
<path d="M110 89C110 77.799 110 72.1984 112.18 67.9202C114.097 64.1569 117.157 61.0973 120.92 59.1799C125.198 57 130.799 57 142 57H1778C1789.2 57 1794.8 57 1799.08 59.1799C1802.84 61.0973 1805.9 64.1569 1807.82 67.9202C1810 72.1984 1810 77.799 1810 89V990C1810 1001.2 1810 1006.8 1807.82 1011.08C1805.9 1014.84 1802.84 1017.9 1799.08 1019.82C1794.8 1022 1789.2 1022 1778 1022H142C130.799 1022 125.198 1022 120.92 1019.82C117.157 1017.9 114.097 1014.84 112.18 1011.08C110 1006.8 110 1001.2 110 990V89Z" fill="white"/>
<line x1="182" y1="153" x2="1698" y2="153" stroke="#E3EFF6" stroke-width="4"/>
<path d="M1087 90.5H1193V115.5H1087V90.5Z" fill="#E3EFF6"/>
<path d="M1241 90.5H1347V115.5H1241V90.5Z" fill="#E3EFF6"/>
<rect x="1395" y="90.5" width="106" height="25" fill="#E3EFF6"/>
<path d="M1549 83C1549 80.7909 1550.79 79 1553 79H1694C1696.21 79 1698 80.7909 1698 83V123C1698 125.209 1696.21 127 1694 127H1553C1550.79 127 1549 125.209 1549 123V83Z" fill="#ABCFE3"/>
<path d="M194 730C194 727.791 195.791 726 198 726H339C341.209 726 343 727.791 343 730V770C343 772.209 341.209 774 339 774H198C195.791 774 194 772.209 194 770V730Z" fill="#ABCFE3"/>
<path d="M373 727H514C515.657 727 517 728.343 517 730V770C517 771.657 515.657 773 514 773H373C371.343 773 370 771.657 370 770V730C370 728.343 371.343 727 373 727Z" fill="#E3EFF6"/>
<path d="M373 727H514C515.657 727 517 728.343 517 730V770C517 771.657 515.657 773 514 773H373C371.343 773 370 771.657 370 770V730C370 728.343 371.343 727 373 727Z" stroke="#D9D9D9" stroke-width="2"/>
<rect x="194" y="77" width="50" height="50" fill="#C8DFEC"/>
<rect x="263" y="91" width="106" height="25" fill="#E3EFF6"/>
<rect x="940" y="361" width="755" height="447" rx="24" fill="#E3EFF6"/>
<path d="M1365.5 621.833V547.167C1365.5 541.3 1360.7 536.5 1354.83 536.5H1280.17C1274.3 536.5 1269.5 541.3 1269.5 547.167V621.833C1269.5 627.7 1274.3 632.5 1280.17 632.5H1354.83C1360.7 632.5 1365.5 627.7 1365.5 621.833ZM1298.83 592.5L1312.17 608.553L1330.83 584.5L1354.83 616.5H1280.17L1298.83 592.5Z" fill="#C8DFEC"/>
<rect x="182" y="403" width="636" height="66" fill="#C8DFEC"/>
<path d="M182 521H702V554H182V521Z" fill="#E3EFF6"/>
<path d="M182 569H702V602H182V569Z" fill="#E3EFF6"/>
<path d="M182 617H702V650H182V617Z" fill="#E3EFF6"/>
</svg>
