<svg xmlns="http://www.w3.org/2000/svg" width="100%" viewBox="0 0 24 25" fill="none"
    class="icon-text_icon-svg">
    <path fill-rule="evenodd" clip-rule="evenodd"
        d="M22 12.3359C22 17.8588 17.5228 22.3359 12 22.3359C6.47715 22.3359 2 17.8588 2 12.3359C2 6.81309 6.47715 2.33594 12 2.33594C17.5228 2.33594 22 6.81309 22 12.3359ZM16.0303 9.30561C16.3232 9.5985 16.3232 10.0734 16.0303 10.3663L11.0303 15.3663C10.7374 15.6592 10.2626 15.6592 9.96967 15.3663L7.96967 13.3663C7.67678 13.0734 7.67678 12.5985 7.96967 12.3056C8.26256 12.0127 8.73744 12.0127 9.03033 12.3056L10.5 13.7753L12.7348 11.5404L14.9697 9.30561C15.2626 9.01271 15.7374 9.01271 16.0303 9.30561Z"
        fill="#41A145"></path>
</svg>