<?xml version="1.0" standalone="no"?>
<!DOCTYPE svg PUBLIC "-//W3C//DTD SVG 20010904//EN"
 "http://www.w3.org/TR/2001/REC-SVG-20010904/DTD/svg10.dtd">
<svg version="1.0" xmlns="http://www.w3.org/2000/svg"
 width="512.000000pt" height="512.000000pt" viewBox="0 0 512.000000 512.000000"
 preserveAspectRatio="xMidYMid meet">

<g transform="translate(0.000000,512.000000) scale(0.100000,-0.100000)"
fill="#2093D6" stroke="none">
<path d="M2515 5066 c-40 -18 -52 -33 -188 -227 -64 -91 -122 -171 -129 -177
-7 -5 -103 -34 -213 -63 -176 -47 -204 -57 -232 -85 -28 -27 -33 -39 -33 -80
l0 -48 161 -162 161 -162 -25 -243 c-28 -268 -27 -284 28 -327 50 -39 86 -31
310 73 l206 95 205 -95 c224 -103 260 -112 309 -73 55 43 56 59 28 327 l-25
243 161 162 161 162 0 48 c0 41 -5 53 -32 80 -29 28 -57 39 -233 85 -110 30
-208 61 -217 70 -9 9 -72 94 -140 190 -68 96 -134 182 -148 192 -35 26 -79 32
-115 15z m149 -460 c50 -71 102 -137 116 -148 14 -10 77 -32 140 -49 63 -17
117 -33 119 -35 3 -3 -38 -48 -91 -102 -54 -53 -101 -109 -107 -123 -6 -18 -4
-78 7 -187 8 -89 13 -164 10 -167 -3 -3 -63 22 -134 55 -78 36 -143 60 -163
60 -21 0 -84 -23 -164 -60 -71 -33 -132 -58 -135 -55 -3 3 2 78 10 167 11 109
13 169 7 187 -6 14 -53 70 -107 123 -53 54 -94 99 -91 102 2 2 56 18 119 35
63 17 126 39 140 49 14 11 67 78 119 151 51 73 98 130 103 129 6 -2 52 -62
102 -132z"/>
<path d="M1986 2984 c-34 -11 -64 -31 -102 -68 -85 -86 -84 -74 -84 -678 l0
-518 -518 0 c-603 0 -592 1 -678 -84 -86 -87 -84 -65 -84 -757 l0 -598 -205
-3 -205 -3 -32 -33 c-28 -28 -33 -39 -33 -82 0 -43 5 -54 33 -82 l32 -33 2450
0 2450 0 32 33 c28 28 33 39 33 82 0 43 -5 54 -33 82 l-32 33 -205 3 -205 3 0
918 c0 1052 5 986 -86 1078 -84 84 -73 83 -676 83 l-518 0 0 199 c0 244 -9
280 -86 358 -84 84 -73 83 -678 82 -433 0 -529 -3 -570 -15z m1082 -236 c9 -9
12 -298 12 -1240 l0 -1228 -520 0 -520 0 0 1228 c0 942 3 1231 12 1240 17 17
999 17 1016 0z m1280 -640 c9 -9 12 -227 12 -920 l0 -908 -520 0 -520 0 0 920
0 920 508 0 c382 0 511 -3 520 -12z m-2548 -1228 l0 -600 -520 0 -520 0 0 588
c0 444 3 591 12 600 9 9 138 12 520 12 l508 0 0 -600z"/>
</g>
</svg>
