<?xml version="1.0" standalone="no"?>
<!DOCTYPE svg PUBLIC "-//W3C//DTD SVG 20010904//EN"
 "http://www.w3.org/TR/2001/REC-SVG-20010904/DTD/svg10.dtd">
<svg version="1.0" xmlns="http://www.w3.org/2000/svg"
 width="512.000000pt" height="512.000000pt" viewBox="0 0 512.000000 512.000000"
 preserveAspectRatio="xMidYMid meet">

<g transform="translate(0.000000,512.000000) scale(0.100000,-0.100000)"
fill="#2093D6" stroke="none">
<path d="M2087 5099 c-53 -28 -70 -72 -112 -284 -19 -98 -38 -182 -43 -185 -4
-4 -47 -21 -97 -39 -49 -18 -132 -53 -184 -77 -51 -24 -99 -44 -105 -44 -6 0
-85 49 -176 109 -91 61 -177 113 -193 117 -75 18 -82 13 -415 -319 -330 -330
-342 -345 -328 -419 3 -18 55 -107 116 -198 60 -91 110 -170 110 -176 0 -6
-22 -58 -49 -115 -26 -57 -61 -140 -76 -184 -16 -44 -31 -83 -35 -87 -3 -5
-87 -24 -185 -43 -214 -42 -257 -59 -285 -114 -19 -39 -20 -57 -20 -471 0
-414 1 -432 20 -471 28 -55 71 -72 285 -114 98 -19 182 -38 185 -43 4 -4 19
-43 35 -87 15 -44 50 -127 76 -184 27 -57 49 -109 49 -115 0 -6 -50 -85 -110
-176 -61 -91 -113 -180 -116 -198 -14 -74 -2 -89 328 -419 333 -332 340 -337
415 -319 16 4 103 57 196 118 l167 111 0 469 0 469 -52 62 c-153 183 -251 390
-304 637 -28 132 -26 402 5 539 65 298 192 525 408 731 200 192 431 311 708
366 134 27 396 25 532 -4 273 -59 490 -173 685 -361 217 -208 347 -440 410
-734 29 -136 31 -398 5 -531 -49 -243 -151 -458 -305 -643 l-52 -62 0 -469 0
-469 168 -111 c92 -61 179 -114 195 -118 75 -18 82 -13 415 319 330 330 342
345 328 419 -3 18 -55 107 -116 198 -60 91 -110 170 -110 176 0 6 20 54 44
105 24 52 59 135 77 184 18 50 35 93 39 97 3 5 87 24 185 43 214 42 257 59
285 114 19 39 20 57 20 471 0 407 -1 433 -19 469 -11 21 -31 46 -46 55 -14 9
-114 35 -222 56 -109 22 -200 43 -203 48 -4 4 -19 43 -35 87 -15 44 -50 127
-76 184 -27 57 -49 109 -49 115 0 6 49 85 109 176 61 91 113 177 117 193 18
75 13 82 -319 415 -330 330 -345 342 -419 328 -18 -3 -107 -55 -198 -116 -91
-60 -171 -110 -178 -110 -7 0 -47 17 -90 39 -42 21 -124 55 -182 76 -58 21
-108 41 -112 45 -5 3 -24 87 -43 185 -42 214 -59 257 -114 285 -39 19 -57 20
-473 20 -413 -1 -435 -2 -471 -21z"/>
<path d="M2102 3400 c-46 -19 -148 -96 -212 -160 -336 -335 -371 -870 -83
-1248 79 -103 199 -204 311 -261 l42 -21 0 -796 c0 -777 0 -796 20 -834 13
-26 34 -47 60 -60 37 -19 58 -20 320 -20 262 0 283 1 320 20 26 13 47 34 60
60 20 38 20 57 20 834 l0 796 43 21 c226 115 410 347 478 604 32 118 32 336 1
459 -27 108 -86 235 -149 324 -98 137 -269 279 -350 288 -48 6 -97 -23 -118
-68 -8 -18 -33 -163 -55 -323 -22 -159 -43 -302 -46 -317 l-6 -28 -198 0 -198
0 -6 28 c-3 15 -24 158 -46 317 -22 160 -47 305 -55 323 -26 57 -95 85 -153
62z"/>
</g>
</svg>
