<?xml version="1.0" standalone="no"?>
<!DOCTYPE svg PUBLIC "-//W3C//DTD SVG 20010904//EN"
 "http://www.w3.org/TR/2001/REC-SVG-20010904/DTD/svg10.dtd">
<svg version="1.0" xmlns="http://www.w3.org/2000/svg"
 width="512.000000pt" height="512.000000pt" viewBox="0 0 512.000000 512.000000"
 preserveAspectRatio="xMidYMid meet">

<g transform="translate(0.000000,512.000000) scale(0.100000,-0.100000)"
fill="#2093D6" stroke="none">
<path d="M3903 4896 c-33 -15 -63 -60 -63 -96 0 -37 30 -81 65 -96 27 -11 96
-14 322 -14 l288 0 -40 -35 c-22 -19 -105 -88 -185 -154 -1103 -899 -2426
-1488 -3835 -1706 -93 -14 -180 -33 -193 -41 -12 -8 -30 -30 -39 -49 -14 -30
-15 -38 -2 -72 10 -25 26 -44 50 -57 36 -20 36 -20 215 8 1459 224 2863 854
3987 1791 71 58 130 105 132 103 2 -2 -25 -120 -61 -263 -44 -175 -63 -270
-60 -291 18 -92 157 -111 196 -26 23 53 228 898 223 924 -3 14 -18 39 -35 55
l-29 28 -452 2 c-370 2 -458 0 -484 -11z"/>
<path d="M3461 3394 c-53 -38 -51 29 -51 -1524 l0 -1440 -105 0 -105 0 0 1131
c0 1037 -1 1133 -17 1159 -9 16 -27 33 -40 39 -16 8 -202 11 -583 11 -381 0
-567 -3 -583 -11 -13 -6 -31 -23 -40 -39 -16 -26 -17 -122 -17 -1159 l0 -1131
-105 0 -105 0 0 800 c0 861 1 847 -51 884 -21 14 -83 16 -597 16 l-574 0 -29
-29 -29 -29 0 -821 0 -821 -61 0 c-76 0 -122 -21 -143 -65 -20 -41 -20 -49 0
-90 33 -70 -163 -65 2334 -65 2497 0 2301 -5 2334 65 20 41 20 49 0 90 -21 44
-67 65 -143 65 l-61 0 0 1461 0 1461 -29 29 -29 29 -574 0 c-514 0 -576 -2
-597 -16z m1019 -1579 l0 -1385 -425 0 -425 0 0 1385 0 1385 425 0 425 0 0
-1385z m-1490 -320 l0 -1065 -430 0 -430 0 0 1065 0 1065 430 0 430 0 0 -1065z
m-1500 -320 l0 -745 -425 0 -425 0 0 745 0 745 425 0 425 0 0 -745z"/>
</g>
</svg>
