<svg xmlns="http://www.w3.org/2000/svg" viewBox="6 6 12 12" fill="none" x="0px" y="0px">
    <path 
        fill-rule="evenodd" 
        clip-rule="evenodd" 
        d="M15.1695 13.8588L15.1695 8.28768C15.1695 8.01154 15.3933 7.78768 15.6695 7.78768H16.6695C16.9456 7.78768 17.1695 8.01154 17.1695 8.28768L17.1695 16.773C17.1695 17.0491 16.9456 17.273 16.6695 17.273L8.18417 17.273C7.90803 17.273 7.68417 17.0491 7.68417 16.773L7.68417 15.773C7.68417 15.4968 7.90803 15.273 8.18417 15.273H13.7552L6.62349 8.14123C6.42823 7.94597 6.42823 7.62939 6.62349 7.43413L7.3306 6.72702C7.52586 6.53176 7.84244 6.53176 8.0377 6.72702L15.1695 13.8588Z" 
        fill="white" 
        stroke="none"
        stroke-width="0"
    />
</svg>
