<svg width="600" height="600" viewBox="0 0 600 600" fill="none" xmlns="http://www.w3.org/2000/svg">
<path fill-rule="evenodd" clip-rule="evenodd" d="M469.039 227.65C468.962 229.857 470.689 231.71 472.897 231.787L495.737 232.584C497.945 232.662 499.797 230.934 499.874 228.726L501.362 186.106L543.935 187.592C546.143 187.669 547.995 185.942 548.072 183.734L548.87 160.894C548.947 158.686 547.219 156.834 545.012 156.757L502.439 155.27L503.902 113.381C503.979 111.173 502.252 109.321 500.044 109.244L477.204 108.446C474.996 108.369 473.144 110.096 473.067 112.304L471.604 154.194L429.666 152.729C427.458 152.652 425.606 154.379 425.529 156.587L424.731 179.427C424.654 181.635 426.381 183.487 428.589 183.564L470.527 185.029L469.039 227.65Z" fill="#1776CB"/>
<path d="M327.714 308.724C327.714 308.724 297.138 404.705 294.647 412.628C293.741 404.478 271.318 232.211 271.318 232.211C219.226 232.211 191.368 269.336 176.646 308.498C176.646 308.498 139.502 404.705 136.331 412.854C136.104 405.384 130.669 309.63 130.669 309.63C127.498 261.639 83.5588 232.438 48 232.438L91.033 493.442C145.617 493.216 175.06 456.317 190.462 417.155C190.462 417.155 223.303 332.267 224.662 328.419C224.888 332.04 248.217 493.442 248.217 493.442C303.027 493.442 332.471 458.808 348.325 421.004L425.105 232.438C370.974 232.438 342.436 269.336 327.714 308.724Z" fill="#1776CB"/>
</svg>
