<?xml version="1.0" standalone="no"?>
<!DOCTYPE svg PUBLIC "-//W3C//DTD SVG 20010904//EN"
 "http://www.w3.org/TR/2001/REC-SVG-20010904/DTD/svg10.dtd">
<svg version="1.0" xmlns="http://www.w3.org/2000/svg"
 width="512.000000pt" height="512.000000pt" viewBox="0 0 512.000000 512.000000"
 preserveAspectRatio="xMidYMid meet">

<g transform="translate(0.000000,512.000000) scale(0.100000,-0.100000)"
fill="#2093D6" stroke="none">
<path d="M340 5109 c-160 -31 -299 -173 -330 -339 -14 -73 -14 -4347 0 -4420
32 -170 170 -308 339 -340 34 -6 452 -10 1132 -10 l1079 0 0 1533 c0 1454 1
1537 19 1622 36 174 115 317 243 441 124 121 256 191 423 225 74 15 136 19
343 19 l252 0 0 439 c0 251 -4 461 -10 492 -32 169 -170 307 -340 339 -66 13
-3085 12 -3150 -1z m1693 -4291 c22 -14 51 -43 65 -65 23 -33 27 -48 27 -113
0 -65 -4 -80 -27 -113 -14 -22 -43 -51 -65 -65 l-38 -27 -270 -3 c-306 -3
-328 0 -389 68 -95 106 -61 272 69 332 36 16 66 18 315 16 l275 -3 38 -27z"/>
<path d="M3294 3395 c-141 -45 -246 -151 -290 -294 -11 -38 -14 -267 -14
-1397 0 -1300 1 -1353 19 -1406 50 -146 156 -244 308 -283 48 -13 166 -15 729
-15 407 0 692 4 725 10 169 32 307 170 339 340 6 34 10 525 10 1364 0 1131 -2
1320 -15 1369 -39 152 -137 258 -283 308 -52 18 -93 19 -771 18 -552 -1 -725
-4 -757 -14z m878 -2581 c161 -113 97 -366 -97 -382 -193 -16 -308 202 -182
345 47 53 99 74 174 70 50 -2 71 -9 105 -33z"/>
</g>
</svg>
