<?xml version="1.0" standalone="no"?>
<!DOCTYPE svg PUBLIC "-//W3C//DTD SVG 20010904//EN"
 "http://www.w3.org/TR/2001/REC-SVG-20010904/DTD/svg10.dtd">
<svg version="1.0" xmlns="http://www.w3.org/2000/svg"
 width="512.000000pt" height="512.000000pt" viewBox="0 0 512.000000 512.000000"
 preserveAspectRatio="xMidYMid meet">

<g transform="translate(0.000000,512.000000) scale(0.100000,-0.100000)"
fill="#2093D6" stroke="none">
<path d="M2500 5109 c-53 -21 -80 -65 -201 -326 -85 -183 -130 -268 -144 -274
-11 -5 -139 -27 -283 -49 -145 -22 -277 -47 -292 -55 -37 -19 -67 -59 -81
-106 -22 -71 -1 -102 230 -339 l208 -215 -48 -300 c-52 -326 -53 -345 -4 -403
33 -40 76 -55 133 -50 37 4 96 32 272 131 124 69 238 131 252 138 25 11 44 2
280 -127 233 -128 257 -139 305 -139 58 0 93 20 131 75 31 46 29 80 -23 390
-25 148 -45 275 -45 282 0 7 94 111 209 230 231 239 243 257 220 340 -12 47
-63 102 -102 112 -13 3 -145 23 -292 45 -147 22 -271 43 -276 48 -4 4 -64 127
-134 272 -69 145 -130 270 -137 278 -35 43 -123 64 -178 42z"/>
<path d="M808 4900 c-66 -20 -82 -43 -182 -258 l-98 -208 -211 -33 c-237 -36
-263 -46 -296 -115 -46 -95 -27 -133 163 -326 l154 -155 -34 -200 c-40 -242
-42 -281 -11 -325 38 -57 72 -75 135 -75 54 0 68 6 238 103 99 56 185 102 190
102 6 0 88 -43 183 -95 95 -52 189 -99 209 -105 68 -18 144 17 178 82 21 40
17 92 -20 313 -29 168 -32 202 -21 214 12 12 3 26 -56 90 -129 140 -178 288
-146 441 13 64 13 77 1 86 -7 6 -53 94 -100 195 -48 101 -96 196 -106 212 -34
48 -114 75 -170 57z"/>
<path d="M4213 4898 c-54 -18 -87 -67 -178 -263 -48 -104 -93 -195 -100 -200
-10 -8 -10 -23 1 -75 24 -111 -2 -252 -63 -345 -14 -22 -56 -70 -91 -107 -62
-64 -64 -69 -48 -86 15 -18 14 -33 -20 -238 -19 -120 -33 -234 -30 -252 7 -45
46 -95 92 -117 64 -30 103 -18 302 94 99 55 185 101 191 101 5 0 94 -46 197
-102 161 -88 193 -102 234 -102 63 0 112 32 141 90 l22 46 -39 232 -38 233
161 171 c172 181 183 200 169 277 -7 37 -45 89 -80 107 -11 6 -115 25 -231 42
l-210 31 -100 202 c-55 111 -107 209 -115 219 -19 22 -89 54 -115 53 -11 -1
-34 -6 -52 -11z"/>
<path d="M2465 2659 c-362 -55 -605 -405 -530 -764 49 -233 245 -435 475 -489
36 -9 103 -16 150 -16 179 0 318 58 446 185 161 159 223 363 178 583 -66 327
-389 552 -719 501z"/>
<path d="M764 2335 c-82 -18 -137 -47 -201 -107 -90 -86 -133 -185 -133 -308
0 -124 43 -222 135 -309 168 -159 422 -155 588 10 168 168 168 430 0 598 -65
64 -139 104 -227 120 -72 13 -84 13 -162 -4z"/>
<path d="M4180 2336 c-84 -18 -149 -54 -213 -117 -168 -167 -168 -430 0 -598
166 -165 420 -169 588 -10 92 87 135 185 135 309 0 123 -43 222 -133 308 -65
61 -119 89 -206 108 -78 16 -98 16 -171 0z"/>
<path d="M442 1260 c-106 -28 -187 -75 -268 -155 -125 -124 -179 -271 -172
-469 3 -116 14 -140 78 -183 l33 -23 478 0 479 0 0 75 c0 220 98 444 267 612
l82 82 -55 26 c-103 49 -161 55 -519 54 -292 0 -338 -2 -403 -19z"/>
<path d="M3874 1265 c-34 -7 -87 -25 -117 -40 l-56 -26 82 -82 c169 -168 267
-392 267 -612 l0 -75 479 0 478 0 33 22 c64 44 75 68 78 184 7 197 -47 343
-172 469 -82 82 -161 127 -272 155 -70 18 -110 20 -408 19 -236 0 -349 -4
-392 -14z"/>
<path d="M1886 1060 c-73 -13 -144 -38 -206 -73 -79 -44 -179 -149 -222 -232
-60 -116 -68 -164 -68 -417 0 -217 1 -226 23 -258 12 -18 35 -43 50 -54 28
-21 28 -21 1097 -21 1069 0 1069 0 1097 21 15 11 38 36 51 54 21 32 22 41 22
258 0 253 -8 301 -68 417 -48 92 -156 201 -243 244 -137 67 -107 65 -829 67
-360 1 -677 -2 -704 -6z"/>
</g>
</svg>
