<?xml version="1.0" standalone="no"?>
<!DOCTYPE svg PUBLIC "-//W3C//DTD SVG 20010904//EN"
 "http://www.w3.org/TR/2001/REC-SVG-20010904/DTD/svg10.dtd">
<svg version="1.0" xmlns="http://www.w3.org/2000/svg"
 width="512.000000pt" height="512.000000pt" viewBox="0 0 512.000000 512.000000"
 preserveAspectRatio="xMidYMid meet">

<g transform="translate(0.000000,512.000000) scale(0.100000,-0.100000)"
fill="#2093D6" stroke="none">
<path d="M2315 5109 c-615 -63 -1167 -332 -1600 -781 -383 -397 -615 -881
-697 -1453 -17 -118 -17 -512 0 -630 71 -496 264 -943 565 -1308 234 -283 518
-508 842 -667 197 -97 316 -142 510 -190 277 -70 561 -94 825 -71 116 10 260
29 267 35 4 3 -165 507 -171 514 -3 2 -19 -7 -36 -22 -17 -14 -36 -26 -41 -26
-5 0 -9 68 -9 158 l0 157 -195 585 c-108 322 -202 608 -210 635 -13 48 -14 43
-14 -117 -1 -196 18 -173 -161 -183 -63 -3 -173 -13 -245 -22 -71 -9 -143 -17
-160 -17 l-30 -1 -17 105 c-15 98 -41 333 -52 478 l-4 62 334 0 334 0 1 -37
c1 -37 1 -36 13 14 53 217 247 396 472 437 l79 14 -72 1 -73 1 0 290 0 290 23
4 c12 3 76 8 143 11 67 3 188 15 270 25 82 11 152 16 155 12 14 -15 57 -353
73 -569 l4 -63 -241 -1 c-236 -1 -240 -1 -167 -14 42 -8 343 -104 670 -215
l595 -200 194 0 193 0 -6 -63 -7 -62 193 -64 c106 -35 198 -66 204 -68 21 -8
54 280 54 472 0 912 -504 1772 -1304 2224 -275 156 -579 259 -901 307 -122 18
-477 26 -600 13z m35 -910 l0 -411 -92 7 c-51 4 -151 13 -221 21 -71 8 -138
14 -149 14 -17 0 -20 5 -15 29 20 101 157 389 247 521 58 84 197 230 219 230
8 0 11 -117 11 -411z m517 339 c86 -84 173 -209 245 -352 53 -105 138 -314
138 -339 0 -10 -26 -17 -102 -26 -99 -11 -324 -31 -360 -31 -17 0 -18 26 -18
410 0 293 3 410 11 410 6 0 45 -33 86 -72z m-1232 -140 c-59 -113 -130 -283
-166 -395 -16 -51 -28 -73 -39 -73 -44 0 -380 115 -380 130 0 8 105 103 195
177 75 61 239 165 340 217 50 25 93 46 97 46 3 0 -18 -46 -47 -102z m1900 56
c131 -67 326 -200 438 -299 53 -47 97 -90 97 -94 0 -16 -335 -131 -380 -131
-11 0 -23 22 -39 73 -36 112 -107 282 -166 395 -29 56 -50 102 -46 102 4 0 47
-21 96 -46z m-2644 -793 c107 -45 386 -141 412 -141 34 -1 37 -15 22 -95 -23
-119 -53 -375 -61 -517 l-7 -128 -410 0 -409 0 7 58 c21 175 86 406 165 582
45 99 149 290 159 290 3 0 58 -22 122 -49z m3501 -14 c100 -170 187 -377 232
-548 24 -93 56 -266 56 -301 0 -17 -20 -18 -410 -18 l-410 0 0 53 c0 115 -51
552 -76 651 -5 22 -2 26 38 36 92 24 347 113 428 150 47 21 90 38 95 39 6 1
27 -27 47 -62z m-2437 -252 c61 -8 164 -17 230 -20 66 -3 130 -8 143 -11 l22
-4 0 -290 0 -290 -334 0 -334 0 5 68 c12 179 53 511 69 561 3 10 15 12 47 7
23 -4 92 -14 152 -21z m-687 -1222 c11 -159 49 -464 67 -535 6 -25 4 -28 -37
-38 -107 -29 -274 -86 -397 -137 -107 -45 -135 -53 -142 -42 -92 140 -194 367
-245 542 -33 115 -74 316 -74 364 l0 23 408 0 408 0 12 -177z m1082 -1253 c0
-293 -3 -410 -11 -410 -22 0 -161 146 -218 229 -32 47 -81 131 -110 187 -52
105 -141 322 -141 347 0 10 29 17 118 27 124 14 262 26 325 29 l37 1 0 -410z
m-881 198 c36 -113 107 -283 166 -395 29 -57 51 -103 48 -103 -3 0 -47 21 -97
46 -101 51 -265 155 -341 217 -90 73 -195 169 -195 177 0 15 327 128 376 129
16 1 24 -12 43 -71z"/>
<path d="M2884 2339 c-43 -12 -100 -77 -108 -123 -6 -32 41 -181 344 -1091
333 -1000 353 -1056 385 -1084 77 -67 196 -46 241 42 9 17 93 229 186 472 93
242 175 445 181 452 7 6 210 88 452 181 243 93 455 177 472 186 65 33 97 117
74 189 -27 79 1 68 -1120 441 -573 190 -1049 346 -1058 345 -10 0 -32 -5 -49
-10z"/>
</g>
</svg>
