<?xml version="1.0" standalone="no"?>
<!DOCTYPE svg PUBLIC "-//W3C//DTD SVG 20010904//EN"
 "http://www.w3.org/TR/2001/REC-SVG-20010904/DTD/svg10.dtd">
<svg version="1.0" xmlns="http://www.w3.org/2000/svg"
 width="512.000000pt" height="512.000000pt" viewBox="0 0 512.000000 512.000000"
 preserveAspectRatio="xMidYMid meet">

<g transform="translate(0.000000,512.000000) scale(0.100000,-0.100000)"
fill="#2093D6" stroke="none">
<path d="M381 4358 c-13 -7 -32 -24 -42 -38 -22 -32 -344 -1986 -334 -2030 3
-15 14 -35 24 -44 22 -20 482 -186 516 -186 36 0 79 47 105 113 12 31 26 60
31 63 5 3 58 -33 118 -81 105 -84 108 -87 125 -146 20 -75 52 -126 107 -172
46 -40 133 -77 178 -77 27 0 30 -4 36 -42 12 -75 55 -156 107 -203 51 -45 138
-85 187 -85 27 0 29 -4 40 -57 31 -158 148 -262 304 -271 46 -3 80 -9 82 -16
29 -107 94 -189 183 -233 76 -37 201 -40 275 -6 l48 23 53 -40 c68 -52 126
-72 206 -73 100 -2 163 24 236 97 33 34 67 78 75 99 10 28 17 36 29 31 8 -4
51 -9 95 -11 98 -6 170 17 238 78 45 39 107 144 107 181 0 15 8 18 60 18 156
0 290 113 321 273 11 53 13 57 40 57 16 0 53 9 83 20 150 57 244 235 203 388
l-14 52 106 57 c58 30 116 62 128 69 30 19 29 19 46 -25 19 -45 60 -81 93 -81
36 0 496 168 517 188 10 10 20 34 22 53 3 19 -64 456 -158 1022 -159 959 -164
989 -190 1015 -51 51 -63 46 -507 -192 -223 -119 -415 -228 -427 -242 -30 -33
-29 -75 2 -152 14 -34 25 -65 25 -70 0 -5 -28 -17 -62 -28 -48 -14 -94 -19
-188 -19 -110 0 -135 3 -205 27 -121 42 -199 57 -316 64 -157 10 -341 -22
-476 -82 l-53 -23 -53 23 c-135 60 -319 92 -476 82 -117 -7 -195 -22 -316 -64
-70 -24 -95 -27 -205 -27 -94 0 -140 5 -187 19 -35 11 -63 23 -63 28 0 5 11
36 25 70 31 77 32 119 3 152 -26 29 -815 454 -857 462 -14 2 -37 -1 -50 -8z
m414 -404 l293 -157 -300 -746 c-165 -410 -303 -749 -307 -754 -11 -11 -273
84 -268 97 2 6 66 395 143 863 76 469 141 853 143 853 2 0 135 -70 296 -156z
m3969 -697 c77 -468 141 -857 143 -863 5 -13 -257 -108 -268 -97 -4 5 -142
344 -307 754 l-300 746 292 156 c160 86 293 156 296 157 3 0 68 -384 144 -853z
m-2495 253 c66 -15 70 -11 -110 -110 -201 -111 -271 -205 -273 -370 -1 -174
114 -323 283 -366 102 -26 148 -15 484 109 261 96 310 112 362 112 47 0 70 -6
105 -27 58 -34 885 -864 899 -901 15 -39 14 -63 -6 -104 -29 -62 -116 -93
-176 -62 -12 6 -177 166 -367 355 -329 328 -347 344 -383 344 -55 0 -102 -45
-102 -99 0 -40 5 -45 351 -393 286 -287 352 -359 358 -386 11 -62 -15 -122
-65 -148 -33 -17 -92 -18 -122 -3 -12 6 -137 125 -277 265 -249 247 -257 254
-295 254 -61 -1 -105 -46 -105 -106 0 -22 43 -71 234 -263 270 -273 274 -279
231 -383 -12 -31 -69 -58 -120 -58 l-48 0 -182 180 -182 180 -45 0 c-39 0 -50
-5 -72 -31 l-26 -31 -33 29 c-18 15 -50 36 -72 46 l-40 18 0 107 c0 92 -3 113
-23 150 -52 98 -137 162 -246 184 l-53 10 -6 48 c-7 57 -35 115 -79 166 -89
101 -244 139 -362 90 l-32 -13 -29 54 c-76 146 -253 211 -412 151 -47 -17 -78
-41 -164 -125 l-106 -103 -101 80 c-56 44 -102 82 -102 84 0 1 94 236 209 522
141 350 213 518 223 517 7 -2 54 -14 103 -27 71 -20 115 -25 205 -25 119 -1
182 10 324 55 43 13 102 29 130 34 64 11 244 6 315 -10z m956 -3 c28 -8 91
-27 140 -42 74 -23 114 -29 225 -32 122 -4 144 -2 230 21 52 15 101 27 108 29
9 1 87 -181 239 -556 123 -308 223 -560 221 -562 -2 -1 -73 -39 -158 -83
l-155 -81 -410 408 c-447 445 -454 451 -589 473 -98 16 -148 4 -480 -119 -323
-119 -361 -127 -429 -85 -94 59 -111 190 -34 267 27 26 360 216 517 295 64 33
145 60 225 76 85 16 277 12 350 -9z m-1800 -1197 c34 -21 65 -73 65 -108 0
-12 -5 -33 -11 -49 -12 -33 -132 -158 -171 -179 -68 -35 -160 -2 -186 68 -24
63 -9 102 66 181 37 38 81 78 97 88 39 25 99 24 140 -1z m450 -184 c65 -27 95
-119 61 -184 -17 -32 -272 -285 -303 -301 -64 -32 -156 4 -181 71 -28 73 -15
97 140 254 173 176 203 193 283 160z m330 -330 c47 -20 75 -69 75 -131 l0 -49
-158 -158 -158 -158 -49 0 c-62 0 -106 25 -128 73 -21 43 -21 58 -2 105 21 49
257 288 310 313 48 23 65 23 110 5z m236 -441 c57 -30 86 -113 58 -168 -16
-32 -119 -136 -151 -153 -80 -42 -188 23 -188 113 0 46 14 76 57 124 85 95
153 120 224 84z m410 -210 c27 -50 21 -99 -17 -144 -48 -57 -126 -63 -184 -14
l-30 25 24 29 c38 44 66 131 66 202 l0 61 60 -59 c32 -32 69 -77 81 -100z"/>
</g>
</svg>
