<svg viewBox="0 0 197 297" fill="none" xmlns="http://www.w3.org/2000/svg">
<g clip-path="url(#clip0_1719_512071)">
<g filter="url(#filter0_i_1719_512071)">
<rect width="100" height="100" transform="matrix(-1 0 0 1 98.5 198)" fill="#1D293E"/>
</g>
<rect x="-0.5" y="0.5" width="99" height="99" transform="matrix(-1 0 0 1 97.5 198)" stroke="#142E3E"/>
<rect x="-0.5" y="0.5" width="99" height="99" transform="matrix(-1 0 0 1 196.5 198)" fill="#25344F" stroke="url(#paint0_linear_1719_512071)"/>
<rect x="-0.5" y="0.5" width="99" height="99" transform="matrix(-1 0 0 1 97.5 99)" fill="#25344F" stroke="#142E3E"/>
<rect x="-0.5" y="0.5" width="99" height="99" transform="matrix(-1 0 0 1 97.5 0)" fill="#25344F" stroke="url(#paint1_linear_1719_512071)"/>
<line x1="97.5" y1="198.5" x2="147.5" y2="198.5" stroke="url(#paint2_linear_1719_512071)"/>
<line y1="-0.5" x2="50" y2="-0.5" transform="matrix(-1 0 0 1 98.5 199)" stroke="url(#paint3_linear_1719_512071)"/>
<line x1="98" y1="198" x2="98" y2="248" stroke="url(#paint4_linear_1719_512071)"/>
<line y1="-0.5" x2="50" y2="-0.5" transform="matrix(0 -1 -1 0 97.5 199)" stroke="url(#paint5_linear_1719_512071)"/>
</g>
<defs>
<filter id="filter0_i_1719_512071" x="-1.5" y="198" width="100" height="100" filterUnits="userSpaceOnUse" color-interpolation-filters="sRGB">
<feFlood flood-opacity="0" result="BackgroundImageFix"/>
<feBlend mode="normal" in="SourceGraphic" in2="BackgroundImageFix" result="shape"/>
<feColorMatrix in="SourceAlpha" type="matrix" values="0 0 0 0 0 0 0 0 0 0 0 0 0 0 0 0 0 0 127 0" result="hardAlpha"/>
<feOffset/>
<feGaussianBlur stdDeviation="5"/>
<feComposite in2="hardAlpha" operator="arithmetic" k2="-1" k3="1"/>
<feColorMatrix type="matrix" values="0 0 0 0 0 0 0 0 0 0 0 0 0 0 0 0 0 0 0.2 0"/>
<feBlend mode="normal" in2="shape" result="effect1_innerShadow_1719_512071"/>
</filter>
<linearGradient id="paint0_linear_1719_512071" x1="100" y1="43" x2="-6.00177" y2="42.75" gradientUnits="userSpaceOnUse">
<stop stop-color="#142E3E"/>
<stop offset="1" stop-color="#142E3E" stop-opacity="0"/>
</linearGradient>
<linearGradient id="paint1_linear_1719_512071" x1="50" y1="100" x2="50" y2="3.5" gradientUnits="userSpaceOnUse">
<stop stop-color="#142E3E"/>
<stop offset="1" stop-color="#142E3E" stop-opacity="0"/>
</linearGradient>
<linearGradient id="paint2_linear_1719_512071" x1="96.5" y1="199" x2="146" y2="199" gradientUnits="userSpaceOnUse">
<stop stop-color="#2093D6"/>
<stop offset="1" stop-color="#2093D6" stop-opacity="0"/>
</linearGradient>
<linearGradient id="paint3_linear_1719_512071" x1="-1" y1="-2.0995e-07" x2="48.5" y2="1.02241e-05" gradientUnits="userSpaceOnUse">
<stop stop-color="#2093D6"/>
<stop offset="1" stop-color="#2093D6" stop-opacity="0"/>
</linearGradient>
<linearGradient id="paint4_linear_1719_512071" x1="97.5" y1="197" x2="97.5" y2="246.5" gradientUnits="userSpaceOnUse">
<stop stop-color="#2093D6"/>
<stop offset="1" stop-color="#2093D6" stop-opacity="0"/>
</linearGradient>
<linearGradient id="paint5_linear_1719_512071" x1="-1" y1="-2.0995e-07" x2="48.5" y2="1.02241e-05" gradientUnits="userSpaceOnUse">
<stop stop-color="#2093D6"/>
<stop offset="1" stop-color="#2093D6" stop-opacity="0"/>
</linearGradient>
<clipPath id="clip0_1719_512071">
<rect width="197" height="297" fill="white"/>
</clipPath>
</defs>
</svg>
