<svg width="1432" height="599" viewBox="0 0 1432 599" fill="none" xmlns="http://www.w3.org/2000/svg">
<path d="M1366.37 193.964L1418.98 169.271L1382.38 196.941L1366.37 193.964Z" fill="hsl(202, 74%, 48%)"/>
<path d="M1418.98 169.272L1382.33 196.953L1390.96 209.001L1418.98 169.272Z" fill="hsl(202, 74%, 61%)"/>
<path d="M1418.98 169.271L1391.01 198.372L1406.66 213.133L1418.98 169.271Z" fill="hsl(202, 74%, 48%)"/>
<path d="M1390.9 209.011L1390.87 198.226L1395.45 202.541L1390.9 209.011Z" fill="hsl(202, 74%, 18%)"/>
<path d="M1373.74 222.484C1344.52 246.272 1257.24 310.462 1167.65 310.395C1057.65 310.357 1066.56 232.689 1129.77 222.309C1192.98 211.929 1243.49 276.858 1217.29 329.648C1191.08 382.439 950 629 1 222.483" stroke="hsl(219, 36%, 75%, 0.6)" stroke-miterlimit="10" stroke-linecap="round" stroke-linejoin="round" stroke-width="2" stroke-dasharray="5.72 7.72"/>
</svg>
