<svg width="375" height="575" viewBox="0 0 375 575" fill="none" xmlns="http://www.w3.org/2000/svg">
<circle cx="7.5" cy="7.5" r="7.5" fill="#5C7AB2"/>
<circle cx="7.5" cy="47.5" r="7.5" fill="#5C7AB2"/>
<circle cx="7.5" cy="87.5" r="7.5" fill="#5C7AB2"/>
<circle cx="7.5" cy="127.5" r="7.5" fill="#5C7AB2"/>
<circle cx="7.5" cy="167.5" r="7.5" fill="#5C7AB2"/>
<circle cx="7.5" cy="207.5" r="7.5" fill="#5C7AB2"/>
<circle cx="7.5" cy="247.5" r="7.5" fill="#5C7AB2"/>
<circle cx="7.5" cy="287.5" r="7.5" fill="#5C7AB2"/>
<circle cx="7.5" cy="327.5" r="7.5" fill="#5C7AB2"/>
<circle cx="7.5" cy="367.5" r="7.5" fill="#5C7AB2"/>
<circle cx="7.5" cy="407.5" r="7.5" fill="#5C7AB2"/>
<circle cx="7.5" cy="447.5" r="7.5" fill="#5C7AB2"/>
<circle cx="7.5" cy="487.5" r="7.5" fill="#5C7AB2"/>
<circle cx="7.5" cy="527.5" r="7.5" fill="#5C7AB2"/>
<circle cx="7.5" cy="567.5" r="7.5" fill="#5C7AB2"/>
<circle cx="47.5" cy="7.5" r="7.5" fill="#5C7AB2"/>
<circle cx="47.5" cy="47.5" r="7.5" fill="#5C7AB2"/>
<circle cx="47.5" cy="87.5" r="7.5" fill="#5C7AB2"/>
<circle cx="47.5" cy="127.5" r="7.5" fill="#5C7AB2"/>
<circle cx="47.5" cy="167.5" r="7.5" fill="#5C7AB2"/>
<circle cx="47.5" cy="207.5" r="7.5" fill="#5C7AB2"/>
<circle cx="47.5" cy="247.5" r="7.5" fill="#5C7AB2"/>
<circle cx="47.5" cy="287.5" r="7.5" fill="#5C7AB2"/>
<circle cx="47.5" cy="327.5" r="7.5" fill="#5C7AB2"/>
<circle cx="47.5" cy="367.5" r="7.5" fill="#5C7AB2"/>
<circle cx="47.5" cy="407.5" r="7.5" fill="#5C7AB2"/>
<circle cx="47.5" cy="447.5" r="7.5" fill="#5C7AB2"/>
<circle cx="47.5" cy="487.5" r="7.5" fill="#5C7AB2"/>
<circle cx="47.5" cy="527.5" r="7.5" fill="#5C7AB2"/>
<circle cx="47.5" cy="567.5" r="7.5" fill="#5C7AB2"/>
<circle cx="87.5" cy="7.5" r="7.5" fill="#5C7AB2"/>
<circle cx="87.5" cy="47.5" r="7.5" fill="#5C7AB2"/>
<circle cx="87.5" cy="87.5" r="7.5" fill="#5C7AB2"/>
<circle cx="87.5" cy="127.5" r="7.5" fill="#5C7AB2"/>
<circle cx="87.5" cy="167.5" r="7.5" fill="#5C7AB2"/>
<circle cx="87.5" cy="207.5" r="7.5" fill="#5C7AB2"/>
<circle cx="87.5" cy="247.5" r="7.5" fill="#5C7AB2"/>
<circle cx="87.5" cy="287.5" r="7.5" fill="#5C7AB2"/>
<circle cx="87.5" cy="327.5" r="7.5" fill="#5C7AB2"/>
<circle cx="87.5" cy="367.5" r="7.5" fill="#5C7AB2"/>
<circle cx="87.5" cy="407.5" r="7.5" fill="#5C7AB2"/>
<circle cx="87.5" cy="447.5" r="7.5" fill="#5C7AB2"/>
<circle cx="87.5" cy="487.5" r="7.5" fill="#5C7AB2"/>
<circle cx="87.5" cy="527.5" r="7.5" fill="#5C7AB2"/>
<circle cx="87.5" cy="567.5" r="7.5" fill="#5C7AB2"/>
<circle cx="127.5" cy="7.5" r="7.5" fill="#5C7AB2"/>
<circle cx="127.5" cy="47.5" r="7.5" fill="#5C7AB2"/>
<circle cx="127.5" cy="87.5" r="7.5" fill="#5C7AB2"/>
<circle cx="127.5" cy="127.5" r="7.5" fill="#5C7AB2"/>
<circle cx="127.5" cy="167.5" r="7.5" fill="#5C7AB2"/>
<circle cx="127.5" cy="207.5" r="7.5" fill="#5C7AB2"/>
<circle cx="127.5" cy="247.5" r="7.5" fill="#5C7AB2"/>
<circle cx="127.5" cy="287.5" r="7.5" fill="#5C7AB2"/>
<circle cx="127.5" cy="327.5" r="7.5" fill="#5C7AB2"/>
<circle cx="127.5" cy="367.5" r="7.5" fill="#5C7AB2"/>
<circle cx="127.5" cy="407.5" r="7.5" fill="#5C7AB2"/>
<circle cx="127.5" cy="447.5" r="7.5" fill="#5C7AB2"/>
<circle cx="127.5" cy="487.5" r="7.5" fill="#5C7AB2"/>
<circle cx="127.5" cy="527.5" r="7.5" fill="#5C7AB2"/>
<circle cx="127.5" cy="567.5" r="7.5" fill="#5C7AB2"/>
<circle cx="167.5" cy="7.5" r="7.5" fill="#5C7AB2"/>
<circle cx="167.5" cy="47.5" r="7.5" fill="#5C7AB2"/>
<circle cx="167.5" cy="87.5" r="7.5" fill="#5C7AB2"/>
<circle cx="167.5" cy="127.5" r="7.5" fill="#5C7AB2"/>
<circle cx="167.5" cy="167.5" r="7.5" fill="#5C7AB2"/>
<circle cx="167.5" cy="207.5" r="7.5" fill="#5C7AB2"/>
<circle cx="167.5" cy="247.5" r="7.5" fill="#5C7AB2"/>
<circle cx="167.5" cy="287.5" r="7.5" fill="#5C7AB2"/>
<circle cx="167.5" cy="327.5" r="7.5" fill="#5C7AB2"/>
<circle cx="167.5" cy="367.5" r="7.5" fill="#5C7AB2"/>
<circle cx="167.5" cy="407.5" r="7.5" fill="#5C7AB2"/>
<circle cx="167.5" cy="447.5" r="7.5" fill="#5C7AB2"/>
<circle cx="167.5" cy="487.5" r="7.5" fill="#5C7AB2"/>
<circle cx="167.5" cy="527.5" r="7.5" fill="#5C7AB2"/>
<circle cx="167.5" cy="567.5" r="7.5" fill="#5C7AB2"/>
<circle cx="207.5" cy="7.5" r="7.5" fill="#5C7AB2"/>
<circle cx="207.5" cy="47.5" r="7.5" fill="#5C7AB2"/>
<circle cx="207.5" cy="87.5" r="7.5" fill="#5C7AB2"/>
<circle cx="207.5" cy="127.5" r="7.5" fill="#5C7AB2"/>
<circle cx="207.5" cy="167.5" r="7.5" fill="#5C7AB2"/>
<circle cx="207.5" cy="207.5" r="7.5" fill="#5C7AB2"/>
<circle cx="207.5" cy="247.5" r="7.5" fill="#5C7AB2"/>
<circle cx="207.5" cy="287.5" r="7.5" fill="#5C7AB2"/>
<circle cx="207.5" cy="327.5" r="7.5" fill="#5C7AB2"/>
<circle cx="207.5" cy="367.5" r="7.5" fill="#5C7AB2"/>
<circle cx="207.5" cy="407.5" r="7.5" fill="#5C7AB2"/>
<circle cx="207.5" cy="447.5" r="7.5" fill="#5C7AB2"/>
<circle cx="207.5" cy="487.5" r="7.5" fill="#5C7AB2"/>
<circle cx="207.5" cy="527.5" r="7.5" fill="#5C7AB2"/>
<circle cx="207.5" cy="567.5" r="7.5" fill="#5C7AB2"/>
<circle cx="247.5" cy="7.5" r="7.5" fill="#5C7AB2"/>
<circle cx="247.5" cy="47.5" r="7.5" fill="#5C7AB2"/>
<circle cx="247.5" cy="87.5" r="7.5" fill="#5C7AB2"/>
<circle cx="247.5" cy="127.5" r="7.5" fill="#5C7AB2"/>
<circle cx="247.5" cy="167.5" r="7.5" fill="#5C7AB2"/>
<circle cx="247.5" cy="207.5" r="7.5" fill="#5C7AB2"/>
<circle cx="247.5" cy="247.5" r="7.5" fill="#5C7AB2"/>
<circle cx="247.5" cy="287.5" r="7.5" fill="#5C7AB2"/>
<circle cx="247.5" cy="327.5" r="7.5" fill="#5C7AB2"/>
<circle cx="247.5" cy="367.5" r="7.5" fill="#5C7AB2"/>
<circle cx="247.5" cy="407.5" r="7.5" fill="#5C7AB2"/>
<circle cx="247.5" cy="447.5" r="7.5" fill="#5C7AB2"/>
<circle cx="247.5" cy="487.5" r="7.5" fill="#5C7AB2"/>
<circle cx="247.5" cy="527.5" r="7.5" fill="#5C7AB2"/>
<circle cx="247.5" cy="567.5" r="7.5" fill="#5C7AB2"/>
<circle cx="287.5" cy="7.5" r="7.5" fill="#5C7AB2"/>
<circle cx="287.5" cy="47.5" r="7.5" fill="#5C7AB2"/>
<circle cx="287.5" cy="87.5" r="7.5" fill="#5C7AB2"/>
<circle cx="287.5" cy="127.5" r="7.5" fill="#5C7AB2"/>
<circle cx="287.5" cy="167.5" r="7.5" fill="#5C7AB2"/>
<circle cx="287.5" cy="207.5" r="7.5" fill="#5C7AB2"/>
<circle cx="287.5" cy="247.5" r="7.5" fill="#5C7AB2"/>
<circle cx="287.5" cy="287.5" r="7.5" fill="#5C7AB2"/>
<circle cx="287.5" cy="327.5" r="7.5" fill="#5C7AB2"/>
<circle cx="287.5" cy="367.5" r="7.5" fill="#5C7AB2"/>
<circle cx="287.5" cy="407.5" r="7.5" fill="#5C7AB2"/>
<circle cx="287.5" cy="447.5" r="7.5" fill="#5C7AB2"/>
<circle cx="287.5" cy="487.5" r="7.5" fill="#5C7AB2"/>
<circle cx="287.5" cy="527.5" r="7.5" fill="#5C7AB2"/>
<circle cx="287.5" cy="567.5" r="7.5" fill="#5C7AB2"/>
<circle cx="327.5" cy="7.5" r="7.5" fill="#5C7AB2"/>
<circle cx="327.5" cy="47.5" r="7.5" fill="#5C7AB2"/>
<circle cx="327.5" cy="87.5" r="7.5" fill="#5C7AB2"/>
<circle cx="327.5" cy="127.5" r="7.5" fill="#5C7AB2"/>
<circle cx="327.5" cy="167.5" r="7.5" fill="#5C7AB2"/>
<circle cx="327.5" cy="207.5" r="7.5" fill="#5C7AB2"/>
<circle cx="327.5" cy="247.5" r="7.5" fill="#5C7AB2"/>
<circle cx="327.5" cy="287.5" r="7.5" fill="#5C7AB2"/>
<circle cx="327.5" cy="327.5" r="7.5" fill="#5C7AB2"/>
<circle cx="327.5" cy="367.5" r="7.5" fill="#5C7AB2"/>
<circle cx="327.5" cy="407.5" r="7.5" fill="#5C7AB2"/>
<circle cx="327.5" cy="447.5" r="7.5" fill="#5C7AB2"/>
<circle cx="327.5" cy="487.5" r="7.5" fill="#5C7AB2"/>
<circle cx="327.5" cy="527.5" r="7.5" fill="#5C7AB2"/>
<circle cx="327.5" cy="567.5" r="7.5" fill="#5C7AB2"/>
<circle cx="367.5" cy="7.5" r="7.5" fill="#5C7AB2"/>
<circle cx="367.5" cy="47.5" r="7.5" fill="#5C7AB2"/>
<circle cx="367.5" cy="87.5" r="7.5" fill="#5C7AB2"/>
<circle cx="367.5" cy="127.5" r="7.5" fill="#5C7AB2"/>
<circle cx="367.5" cy="167.5" r="7.5" fill="#5C7AB2"/>
<circle cx="367.5" cy="207.5" r="7.5" fill="#5C7AB2"/>
<circle cx="367.5" cy="247.5" r="7.5" fill="#5C7AB2"/>
<circle cx="367.5" cy="287.5" r="7.5" fill="#5C7AB2"/>
<circle cx="367.5" cy="327.5" r="7.5" fill="#5C7AB2"/>
<circle cx="367.5" cy="367.5" r="7.5" fill="#5C7AB2"/>
<circle cx="367.5" cy="407.5" r="7.5" fill="#5C7AB2"/>
<circle cx="367.5" cy="447.5" r="7.5" fill="#5C7AB2"/>
<circle cx="367.5" cy="487.5" r="7.5" fill="#5C7AB2"/>
<circle cx="367.5" cy="527.5" r="7.5" fill="#5C7AB2"/>
<circle cx="367.5" cy="567.5" r="7.5" fill="#5C7AB2"/>
</svg>
